<svg width="404" height="459" viewBox="0 0 404 459" fill="none" xmlns="http://www.w3.org/2000/svg">
<path d="M234.033 31.4758C234.007 48.8303 218.758 62.8756 199.975 62.8467C181.192 62.8179 165.987 48.7259 166.014 31.3714C166.041 14.0168 181.289 -0.0284302 200.072 0.000394761C218.855 0.0292197 234.06 14.1212 234.033 31.4758Z" fill="#287D88" fill-opacity="0.5"/>
<path d="M-0.000330924 414.811C0.991764 413.82 16.244 372.497 67.4774 337.514C85.1031 327.398 136.606 303.551 201.609 289.097C266.613 274.642 306.238 244.603 317.925 231.39C335.348 210.358 358.786 156.765 313.158 110.652C306.345 103.254 277.795 88.7664 218.094 89.9978L218.036 128.036C244.897 124.549 298.603 127.895 298.54 169.176C298.476 210.456 269.736 219.353 256.845 228.32C247.038 235.14 211.439 252.793 147.489 268.837C99.1517 281.442 1.98153 328.284 -0.000330924 414.811Z" fill="#287D88" fill-opacity="0.5"/>
<path d="M403.428 457.769C368.55 449.446 288.932 405 249.48 293.801C249.48 293.801 241.539 296.885 229.522 301.155C217.505 305.426 209.837 306.971 209.837 306.971C228.245 360.915 292.734 466.596 403.428 457.769Z" fill="#287D88" fill-opacity="0.5"/>
<path d="M111.376 458.383C162.053 417.283 160.417 365.19 160.481 323.775C160.481 323.775 167.269 320.774 176.789 317.795C186.309 314.815 195.67 312.676 195.67 312.676C195.81 451.478 131.964 458.414 111.376 458.383Z" fill="#287D88" fill-opacity="0.5"/>
<path d="M177.049 242.06C186.515 239.896 195.869 234.741 195.869 234.741L196.088 91.7856C196.089 90.9278 193.516 90.9238 184.08 90.9093L159.797 90.8721L159.823 245.287C159.823 245.287 167.584 244.224 177.049 242.06Z" fill="#287D88" fill-opacity="0.5"/>
<path d="M159.797 90.8721L159.743 126.044L81.6773 125.925C27.4584 127.214 12.1204 171.57 11.2261 195.303C-7.84041 97.8208 69.7226 89.876 101.463 89.9247C133.204 89.9734 159.797 90.8721 159.797 90.8721Z" fill="#287D88" fill-opacity="0.5"/>
</svg>
